<?xml version="1.0" encoding="utf-8"?>
<svg viewBox="0 0 500 500" xmlns="http://www.w3.org/2000/svg">
  <rect width="496.018" height="498.751" rx="16" fill="#FEDA03" x="1.433" y="0.116" style=""/>
  <path d="M 281.11 405.351 C 260.029 405.351 244.637 399.989 234.934 389.282 C 225.959 380.211 220.751 367.757 220.441 354.65 C 220.332 350.66 221.2 346.717 222.983 343.194 C 224.641 340.155 227.028 337.629 229.911 335.885 C 233.26 334.123 236.949 333.203 240.684 333.203 C 244.42 333.203 248.125 334.123 251.473 335.885 C 254.34 337.629 256.727 340.155 258.355 343.194 C 260.184 346.701 261.083 350.644 260.975 354.65 C 261.176 359.419 259.874 364.11 257.286 368.039 C 255.131 371.233 252.062 373.618 248.512 374.818 C 251.984 379.463 256.882 382.689 262.37 383.92 C 268.508 385.806 274.863 386.772 281.249 386.788 C 289.713 386.866 297.99 384.263 305.027 379.292 C 312.313 373.852 317.753 366.09 320.543 357.128 C 324.062 346.482 325.783 335.246 325.612 323.961 C 325.907 312.194 324.015 300.488 320.078 289.486 C 317.118 280.679 311.476 273.151 304.051 268.055 C 297.153 263.442 289.139 261.026 280.97 261.087 C 273.856 261.726 266.989 264.173 260.975 268.242 L 246.156 276.081 L 246.156 268.242 L 312.778 173.962 L 220.441 173.962 L 220.441 271.795 C 220.177 278.855 221.944 285.838 225.525 291.823 C 227.245 294.426 229.586 296.514 232.299 297.886 C 235.011 299.258 238.018 299.865 241.025 299.663 C 246.59 299.538 251.953 297.542 256.355 293.958 C 261.347 290.109 265.687 285.402 269.19 280.024 C 269.515 279.089 270.089 278.278 270.864 277.686 C 271.484 277.125 272.275 276.814 273.096 276.814 C 274.693 276.97 276.212 277.656 277.436 278.762 C 278.971 280.586 279.808 282.938 279.792 285.386 C 279.606 287.022 279.327 288.659 278.955 290.264 C 275.669 298.633 270.182 305.835 263.114 310.994 C 256.557 315.686 248.822 318.163 240.901 318.116 C 220.906 318.116 207.064 313.97 199.344 305.647 C 195.392 301.049 192.338 295.673 190.37 289.813 C 188.401 283.968 187.564 277.749 187.905 271.562 L 187.905 173.962 L 140.938 173.962 L 140.938 155.773 L 188.122 155.773 L 188.122 114.329 L 177.318 102.922 L 177.318 93.631 L 208.66 93.631 L 220.441 100.07 L 220.441 155.773 L 342.415 155.384 L 354.567 168.241 L 279.777 247.528 C 284.288 245.611 289.046 244.411 293.898 243.928 C 303.493 244.379 312.855 247.2 321.241 252.156 C 330.929 257.02 339.098 264.719 344.786 274.336 C 349.87 282.471 353.467 291.542 355.404 301.065 C 356.985 308.594 357.838 316.262 357.946 323.961 C 357.993 338.675 354.831 353.185 348.708 366.386 C 342.895 379.182 333.13 389.485 321.008 395.609 C 308.592 402.062 294.936 405.397 281.11 405.351 Z" fill="black" style=""/>
</svg>